<?xml version="1.0" encoding="utf-8"?>
<!-- Generator: Adobe Illustrator 24.1.2, SVG Export Plug-In . SVG Version: 6.00 Build 0)  -->
<svg version="1.1" id="Layer_1" xmlns="http://www.w3.org/2000/svg" xmlns:xlink="http://www.w3.org/1999/xlink" x="0px" y="0px"
	 viewBox="0 0 30 30" style="enable-background:new 0 0 30 30;" xml:space="preserve">
<style type="text/css">
	.st0{fill:#FFFFFF;}
</style>
<path class="st0" d="M26.5,21.7H10.6l0.3-0.9c0.1-0.4,0.2-0.8,0.1-1.2l-0.3-2l14.8-1.2c0.6,0,1-0.8,1-1.7V4c0-0.9-0.5-1.6-1-1.6H8.2
	L8,1.2C7.9,0.9,7.8,0.6,7.6,0.3C7.5,0.1,7.2,0,7,0H3.5C3.3,0,3,0.2,2.8,0.5C2.6,0.8,2.5,1.2,2.5,1.6c0,0.4,0.1,0.8,0.3,1.1
	C3,3,3.3,3.2,3.5,3.2h2.7l2.7,16.5l-1.1,2.7c-0.1,0.2-0.1,0.5-0.2,0.8c0,0.3,0,0.6,0.1,0.8c0.1,0.3,0.2,0.5,0.4,0.6
	c0.2,0.1,0.3,0.2,0.5,0.2h17.7c0.3,0,0.5-0.2,0.7-0.5c0.2-0.3,0.3-0.7,0.3-1.1s-0.1-0.8-0.3-1.1C27,21.9,26.7,21.7,26.5,21.7z"/>
<circle class="st0" cx="9.8" cy="27.8" r="2.2"/>
<circle class="st0" cx="23.4" cy="27.8" r="2.2"/>
</svg>
